<?xml version="1.0" encoding="utf-8"?>
<!-- Generator: Adobe Illustrator 28.7.8, SVG Export Plug-In . SVG Version: 9.03 Build 56881)  -->
<svg version="1.1" id="Layer_1" xmlns="http://www.w3.org/2000/svg" xmlns:xlink="http://www.w3.org/1999/xlink" x="0px" y="0px"
	 width="289px" height="52.6px" viewBox="0 0 289 52.6" style="enable-background:new 0 0 289 52.6;" xml:space="preserve">
<style type="text/css">
	.Drop_x0020_Shadow{fill:none;}
	.Round_x0020_Corners_x0020_2_x0020_pt{fill:#FFFFFF;stroke:#000000;stroke-miterlimit:10;}
	.Live_x0020_Reflect_x0020_X{fill:none;}
	.Bevel_x0020_Soft{fill:url(#SVGID_1_);}
	.Dusk{fill:#FFFFFF;}
	.Foliage_GS{fill:#FFDD00;}
	.Pompadour_GS{fill-rule:evenodd;clip-rule:evenodd;fill:#44ADE2;}
	.st0{fill:#231F20;}
	.st1{fill:#303030;}
	.st2{fill:#FFFFFF;stroke:#333333;stroke-miterlimit:10;}
</style>
<linearGradient id="SVGID_1_" gradientUnits="userSpaceOnUse" x1="-125.0426" y1="-392.3762" x2="-124.3354" y2="-391.6691">
	<stop  offset="0" style="stop-color:#DEDFE3"/>
	<stop  offset="0.1738" style="stop-color:#D8D9DD"/>
	<stop  offset="0.352" style="stop-color:#C9CACD"/>
	<stop  offset="0.5323" style="stop-color:#B4B5B8"/>
	<stop  offset="0.7139" style="stop-color:#989A9C"/>
	<stop  offset="0.8949" style="stop-color:#797C7E"/>
	<stop  offset="1" style="stop-color:#656B6C"/>
</linearGradient>
<g>
	<g>
		<path class="st0" d="M69.9,40.4V14.6c0-7.7,3.8-11.5,11.5-11.5h19.2l4.2,3.2V11H81.6c-2.1,0-3.1,1-3.1,3v27c0,2,1,3,3.1,3h23.2
			v4.6l-4.2,3.2H81.4C73.7,51.9,69.9,48,69.9,40.4z"/>
		<path class="st0" d="M114.3,51.9V3.1h8.6v19.6h20.6V3.1h8.6v48.7h-8.6V30.5h-20.6v21.3H114.3z"/>
		<path class="st0" d="M164.1,51.9V3.1h32.8V11h-24.2v11.7h22v7.8h-22V44h24.2v7.8H164.1z"/>
		<path class="st0" d="M204.3,48.6V44h21.8c2.1,0,3.1-1,3.1-3v-5.4c0-1.8-0.8-2.8-2.4-3.2l-14.3-2.9c-5.5-1.1-8.2-4.8-8.2-11v-3.9
			c0-7.7,3.8-11.5,11.5-11.5h16.5l4.2,3.2V11h-20.4c-2.1,0-3.1,1-3.1,3v4.7c0,1.8,0.8,2.9,2.4,3.2l14.3,2.8c5.5,1.1,8.2,4.8,8.2,11
			v4.6c0,7.7-3.8,11.5-11.5,11.5h-17.9L204.3,48.6z"/>
		<path class="st0" d="M245,51.9v-6.7L269.8,11h-24.1V3.1h35v6.7L255.8,44h25.5v7.8H245z"/>
	</g>
	<g>
		<rect x="27.1" class="st1" width="26" height="26.4"/>
		<rect x="27.1" y="26.1" class="st2" width="25.5" height="25.8"/>
		<rect x="1.5" y="0.3" class="st2" width="25.6" height="25.7"/>
		<rect x="1" y="26.1" class="st1" width="26" height="26.4"/>
	</g>
</g>
<g>
</g>
<g>
</g>
<g>
</g>
<g>
</g>
<g>
</g>
<g>
</g>
</svg>
